<svg xmlns="http://www.w3.org/2000/svg" width="64" height="64" enable-background="new 0 0 64 64" viewBox="0 0 64 64" id="home">
  <rect width="45.007" height="30.329" x="9.498" y="30.798" fill="#F4F4F4"></rect>
  <polygon fill="#F26E62" points="23.259 18.051 23.259 28.151 6.858 28.151 13.728 18.051"></polygon>
  <rect width="3.099" height="3.914" x="28.488" y="19.106" fill="#F26E62"></rect>
  <rect width="3.099" height="3.914" x="32.562" y="19.106" fill="#F26E62"></rect>
  <polygon fill="#F26E62" points="57.14 28.151 40.76 28.151 40.75 18.051 50.27 18.051"></polygon>
  <path fill="#FEDC7D" d="M8.102,64h47.801c0.685,0,1.239-0.555,1.239-1.239v-0.393c0-0.684-0.555-1.239-1.239-1.239H8.101
			c-0.684,0-1.239,0.555-1.239,1.239v0.394C6.862,63.445,7.417,64,8.102,64z"></path>
  <rect width="50.282" height="2.64" x="6.858" y="28.151" fill="#E15F5A"></rect>
  <g>
    <rect width="6.665" height="5.639" x="15.479" y="44.652" fill="#A0C3D8"></rect>
    <rect width="6.665" height="5.645" x="15.479" y="50.804" fill="#A0C3D8"></rect>
    <rect width="6.672" height="5.639" x="22.931" y="44.652" fill="#A0C3D8"></rect>
    <rect width="6.672" height="5.645" x="22.931" y="50.804" fill="#A0C3D8"></rect>
    <path fill="#DADDE1" d="M14.771,43.9V57.2h15.532V43.9H14.771z M22.149,56.445h-6.678V50.8h6.678V56.445z M22.149,50.29h-6.678
					v-5.635h6.678V50.29z M29.602,56.445h-6.667V50.8h6.667V56.445z M29.602,50.29h-6.667v-5.635h6.667V50.29z"></path>
  </g>
  <g>
    <rect width="5.879" height="5.638" x="14.583" y="33.239" fill="#92B6CF"></rect>
    <rect width="5.879" height="5.638" x="24.236" y="33.239" fill="#92B6CF"></rect>
    <rect width="5.879" height="5.638" x="33.889" y="33.239" fill="#92B6CF"></rect>
    <rect width="5.879" height="5.638" x="43.542" y="33.239" fill="#92B6CF"></rect>
  </g>
  <path fill="#788D9A" d="M48.495,61.128H37.391V50.013c0-3.066,2.486-5.552,5.552-5.552l0,0c3.066,0,5.552,2.486,5.552,5.552V61.128
		z"></path>
  <g>
    <path fill="#EDEDED" d="M40.75,18.051v-2.72l-1.47-1.89l-0.86-1.11l-2.79-3.6l-2.78-3.58l-0.85-1.09l-0.84,1.09l-3.63,4.69
			l-2.8,3.62l-1.47,1.91v12.781H40.76L40.75,18.051z M36.379,23.961h-8.75V13.24h8.75V23.961z"></path>
    <polygon fill="#EDEDED" points="31.999 4.06 31.159 5.15 27.529 9.84 31.149 5.15"></polygon>
    <rect width="3.099" height="3.914" x="28.488" y="14.067" fill="#EDEDED"></rect>
    <rect width="3.099" height="3.914" x="28.488" y="19.106" fill="#EDEDED"></rect>
    <rect width="3.099" height="3.914" x="32.562" y="14.067" fill="#EDEDED"></rect>
    <rect width="3.099" height="3.914" x="32.562" y="19.106" fill="#EDEDED"></rect>
    <polygon fill="#EDEDED" points="40.24 28.151 23.259 28.161 23.259 28.151"></polygon>
    <path fill="#F26E62" d="M42.47,14.281v0.01c0,1.33-0.91,2.08-1.54,1.26l-0.17-0.21l-0.01-0.01l-1.47-1.89l-0.86-1.11l-2.79-3.6
			l-2.78-3.58l-0.85-1.09l-0.84,1.09l-3.63,4.69l-2.8,3.62l-1.47,1.91l-0.17,0.21c-0.63,0.82-1.54,0.06-1.54-1.27
			c0-0.5,0.13-0.97,0.37-1.27l2.81-3.62l3.29-4.26L31.999,0l3.63,4.67l0.36,0.47l0.36,0.47l2.07,2.67l0.86,1.1l0.44,0.56l2.38,3.07
			C42.34,13.311,42.47,13.781,42.47,14.281z"></path>
  </g>
  <g>
    <path fill="#DADDE1" d="M27.629,13.24v10.721h8.75V13.24H27.629z M31.589,23.021h-3.1v-3.91h3.1V23.021z M31.589,17.981h-3.1
			v-3.91h3.1V17.981z M35.659,23.021h-3.1v-3.91h3.1V23.021z M35.659,17.981h-3.1v-3.91h3.1V17.981z"></path>
    <rect width="3.099" height="3.914" x="28.488" y="14.067" fill="#DADDE1"></rect>
    <rect width="3.099" height="3.914" x="28.488" y="19.106" fill="#DADDE1"></rect>
    <rect width="3.099" height="3.914" x="32.562" y="14.067" fill="#DADDE1"></rect>
    <rect width="3.099" height="3.914" x="32.562" y="19.106" fill="#DADDE1"></rect>
    <rect width="3.099" height="3.914" x="28.488" y="14.067" fill="#92B6CF"></rect>
    <rect width="3.099" height="3.914" x="32.562" y="14.067" fill="#92B6CF"></rect>
    <g>
      <rect width="3.099" height="3.914" x="28.488" y="19.106" fill="#92B6CF"></rect>
      <rect width="3.099" height="3.914" x="32.562" y="19.106" fill="#92B6CF"></rect>
    </g>
  </g>
</svg>
