<svg xmlns="http://www.w3.org/2000/svg" xml:space="preserve" viewBox="0 0 64 64" id="home">
  <path fill="#F15439" d="M47 7.5v11l5 5v-16z"></path>
  <path fill="#399BB9" d="M10 31.5v29h13v-29h18v29h13v-29l-22-22z"></path>
  <path fill="#FFF" d="M23 31.5v29h18v-29H23zm11.5 19a2.5 2.5 0 1 1 0-5 2.5 2.5 0 0 1 0 5z"></path>
  <circle cx="34.5" cy="48" r="2.5" fill="#FFF"></circle>
  <path d="M59.293 32.207 32 4.914 4.707 32.207l-1.414-1.414L32 2.086l28.707 28.707z"></path>
  <path d="M55 61.5H9V31.086l23-23 23 23V61.5zm-44-2h42V31.914l-21-21-21 21V59.5z"></path>
  <path d="M34.5 51.5c-1.93 0-3.5-1.57-3.5-3.5s1.57-3.5 3.5-3.5S38 46.07 38 48s-1.57 3.5-3.5 3.5zm0-5c-.827 0-1.5.673-1.5 1.5s.673 1.5 1.5 1.5S36 48.827 36 48s-.673-1.5-1.5-1.5z"></path>
  <path d="M42 61.5H22v-31h20v31zm-18-2h16v-27H24v27zM53 23.5h-2v-15h-3v10h-2v-12h7z"></path>
</svg>
