<svg xmlns="http://www.w3.org/2000/svg" enable-background="new 0 0 512 512" viewBox="0 0 512 512" id="video-camera">
  <path d="M498.078,169.816c-6.635-3.709-14.732-3.5-21.157,0.418l-55.74,34.269v-20.791c0-24.448-19.851-44.299-44.299-44.299h-16.456c16.194-14.679,26.381-35.732,26.381-59.24c0-44.194-35.941-80.135-80.136-80.135c-29.881,0-55.949,16.455-69.74,40.695c-13.791-24.239-39.859-40.695-69.688-40.695c-44.143,0-80.083,35.941-80.083,80.135c0,23.508,10.187,44.561,26.329,59.24H97.087c-24.448,0-44.299,19.851-44.299,44.299v24.709H36.333c-18.232,0-33.068,14.836-33.068,33.068v46.546c0,18.232,14.836,33.067,33.068,33.067h16.456v24.71c0,24.396,19.851,44.299,44.299,44.299h115.658l-98.211,104.27c-3.918,4.179-3.709,10.813,0.47,14.731c4.179,3.97,10.814,3.761,14.784-0.418l96.747-102.755v95.546c0,5.799,4.649,10.448,10.448,10.448c5.747,0,10.448-4.649,10.448-10.448V405.99l96.748,102.703c3.97,4.179,10.605,4.388,14.784,0.418c4.179-3.97,4.388-10.552,0.418-14.731l-98.263-104.27h115.763c24.448,0,44.299-19.903,44.299-44.299v-20.792l55.74,34.217c3.343,2.09,7.157,3.082,10.97,3.082c3.5,0,7-0.888,10.187-2.664c6.582-3.657,10.657-10.657,10.657-18.232V188.047C508.735,180.472,504.661,173.524,498.078,169.816z M306.672,20.933c32.65,0,59.24,26.59,59.24,59.239c0,32.493-26.277,58.926-58.718,59.24h-1.097c-32.441-0.313-58.717-26.747-58.717-59.24C247.381,47.523,273.97,20.933,306.672,20.933z M252.866,139.412h-31.814c6.269-5.694,11.65-12.381,15.881-19.799C241.164,127.031,246.545,133.718,252.866,139.412z M108.057,80.172c0-32.65,26.538-59.239,59.188-59.239s59.24,26.59,59.24,59.239c0,32.493-26.277,58.926-58.718,59.24h-1.097C134.334,139.099,108.057,112.665,108.057,80.172z M400.286,345.811c0,12.903-10.5,23.403-23.403,23.403H97.087c-12.903,0-23.403-10.5-23.403-23.403v-162.1c0-12.903,10.5-23.403,23.403-23.403h279.795c12.903,0,23.403,10.5,23.403,23.403V345.811z" fill="white"></path>
  <path d="M212.641 228.428v72.613c0 15.097-12.276 27.374-27.373 27.374H133.55c-15.097 0-27.373-12.276-27.373-27.374v-72.613c0-15.097 12.276-27.321 27.373-27.321h51.717C200.365 201.107 212.641 213.331 212.641 228.428zM204.701 80.172c0 20.635-16.821 37.456-37.456 37.456-20.582 0-37.351-16.821-37.351-37.456s16.769-37.456 37.351-37.456C187.88 42.717 204.701 59.538 204.701 80.172z" fill="white"></path>
  <circle cx="306.672" cy="80.172" r="37.456" fill="white"></circle>
  <path d="M324.656 212.695h-46.454c-5.77 0-10.448 4.678-10.448 10.448s4.678 10.448 10.448 10.448h46.454c5.77 0 10.448-4.678 10.448-10.448S330.425 212.695 324.656 212.695zM324.656 254.3h-46.454c-5.77 0-10.448 4.678-10.448 10.448 0 5.77 4.678 10.448 10.448 10.448h46.454c5.77 0 10.448-4.678 10.448-10.448C335.104 258.979 330.425 254.3 324.656 254.3zM324.656 295.903h-46.454c-5.77 0-10.448 4.678-10.448 10.448 0 5.77 4.678 10.448 10.448 10.448h46.454c5.77 0 10.448-4.678 10.448-10.448C335.104 300.581 330.425 295.903 324.656 295.903z" fill="white"></path>
</svg>
